<svg width="1440" height="285" viewBox="0 0 1440 285" fill="none" xmlns="http://www.w3.org/2000/svg">
    <path d="M209.085 -88.6604C136.563 -88.6604 96.7169 -107.445 73.543 -115.103H-27.4884L-65 164.059C-38.4918 177.497 26.6284 219.111 159.07 219.111C313.117 219.111 330.123 285 592.704 285C855.286 285 979.824 185.299 1098.36 164.059C1216.9 142.818 1306.43 204.373 1385.95 219.111C1449.57 230.902 1519.16 224.024 1546 219.111C1546 95.1354 1541.7 -150.128 1524.49 -139.378C1502.99 -125.94 1326.93 -47.9132 1149.38 -47.9132C917.805 -47.9132 754.254 -148.808 473.167 -139.378C312.117 -139.378 308.616 -88.6604 209.085 -88.6604Z" fill="white"/>
</svg>
