<?xml version="1.0" encoding="utf-8"?>
<!-- Generator: Adobe Illustrator 24.2.3, SVG Export Plug-In . SVG Version: 6.00 Build 0)  -->
<svg version="1.1" id="Layer_1" xmlns="http://www.w3.org/2000/svg" xmlns:xlink="http://www.w3.org/1999/xlink" x="0px" y="0px"
	 viewBox="0 0 275 51" style="enable-background:new 0 0 275 51;" xml:space="preserve">
<style type="text/css">
	.st0{fill:#E9383E;}
	.st1{fill:#E31E41;}
	.st2{font-family:'OpenSans';}
	.st3{font-size:27px;}
	.st4{letter-spacing:2;}
</style>
<path class="st0" d="M25.5,0C11.4,0,0,11.4,0,25.5C0,33.7,3.8,41,10,45.6l3.6-3.7c0-0.1,0.1-0.1,0.2-0.2l0.5-0.6l5.3-5.3
	c1.7,1,3.7,1.6,5.9,1.6c6.6,0,11.9-5.3,11.9-11.9c0-6.6-5.3-11.9-11.9-11.9s-11.9,5.3-11.9,11.9c0,2.3,0.6,4.5,1.8,6.3l-5.3,5.3
	c-2.4-3.2-3.8-7.2-3.8-11.4c0-10.6,8.7-19.2,19.2-19.2c10.6,0,19.2,8.7,19.2,19.2s-8.7,19.2-19.2,19.2c-1.7,0-3.4-0.2-4.9-0.6
	l-0.5,0.5l-4.2,4.5c3,1.2,6.3,1.9,9.7,1.9c14.1,0,25.5-11.4,25.5-25.5S39.6,0,25.5,0z"/>
<path class="st1" d="M25.5,0C11.4,0,0,11.4,0,25.5C0,33.7,3.8,41,10,45.6l3.6-3.7c0-0.1,0.1-0.1,0.2-0.2l0.5-0.6l5.3-5.3
	c1.7,1,3.7,1.6,5.9,1.6c6.6,0,11.9-5.3,11.9-11.9c0-6.6-5.3-11.9-11.9-11.9s-11.9,5.3-11.9,11.9c0,2.3,0.6,4.5,1.8,6.3l-5.3,5.3
	c-2.4-3.2-3.8-7.2-3.8-11.4c0-10.6,8.7-19.2,19.2-19.2c10.6,0,19.2,8.7,19.2,19.2s-8.7,19.2-19.2,19.2c-1.7,0-3.4-0.2-4.9-0.6
	l-0.5,0.5l-4.2,4.5c3,1.2,6.3,1.9,9.7,1.9c14.1,0,25.5-11.4,25.5-25.5S39.6,0,25.5,0z"/>
<text transform="matrix(1 0 0 1 66 28.5)" class="st2 st3 st4">lorem ipsum</text>
</svg>
