<svg width="52" height="51" viewBox="0 0 52 51" fill="none" xmlns="http://www.w3.org/2000/svg">
<path d="M25.4919 0C11.4233 0 0 11.4269 0 25.5C0 33.6792 3.84784 41.0165 9.98032 45.5873L13.5877 41.8585C13.5877 41.7382 13.7079 41.7382 13.8282 41.6179L14.3091 41.0165L19.5999 35.7241C21.2833 36.6863 23.3275 37.2877 25.4919 37.2877C32.1054 37.2877 37.3962 31.9953 37.3962 25.3797C37.3962 18.7642 32.1054 13.4717 25.4919 13.4717C18.8784 13.4717 13.5877 18.7642 13.5877 25.3797C13.5877 27.6651 14.1889 29.8302 15.3913 31.6344L10.1006 36.9269C7.69567 33.6792 6.25273 29.7099 6.25273 25.5C6.25273 14.9151 14.9104 6.25472 25.4919 6.25472C36.0735 6.25472 44.7311 14.9151 44.7311 25.5C44.7311 36.0849 36.0735 44.7453 25.4919 44.7453C23.8085 44.7453 22.1251 44.5047 20.5619 44.1439L20.0809 44.625L15.8723 49.0755C18.8784 50.2783 22.1251 51 25.6122 51C39.6808 51 51.1041 39.5731 51.1041 25.5C51.1041 11.4269 39.5606 0 25.4919 0Z" fill="#E9383E"/>
<path d="M25.4919 0C11.4233 0 0 11.4269 0 25.5C0 33.6792 3.84784 41.0165 9.98032 45.5873L13.5877 41.8585C13.5877 41.7382 13.7079 41.7382 13.8282 41.6179L14.3091 41.0165L19.5999 35.7241C21.2833 36.6863 23.3275 37.2877 25.4919 37.2877C32.1054 37.2877 37.3962 31.9953 37.3962 25.3797C37.3962 18.7642 32.1054 13.4717 25.4919 13.4717C18.8784 13.4717 13.5877 18.7642 13.5877 25.3797C13.5877 27.6651 14.1889 29.8302 15.3913 31.6344L10.1006 36.9269C7.69567 33.6792 6.25273 29.7099 6.25273 25.5C6.25273 14.9151 14.9104 6.25472 25.4919 6.25472C36.0735 6.25472 44.7311 14.9151 44.7311 25.5C44.7311 36.0849 36.0735 44.7453 25.4919 44.7453C23.8085 44.7453 22.1251 44.5047 20.5619 44.1439L20.0809 44.625L15.8723 49.0755C18.8784 50.2783 22.1251 51 25.6122 51C39.6808 51 51.1041 39.5731 51.1041 25.5C51.1041 11.4269 39.5606 0 25.4919 0Z" fill="#E31E41"/>
</svg>
