<svg width="42" height="34" viewBox="0 0 42 34" fill="none" xmlns="http://www.w3.org/2000/svg">
<path d="M42 25.8674C42 25.2795 32.2552 23.1239 32.2552 16.1672C32.2552 10.9741 35.5685 7.44669 41.9026 3.23343L38.7842 0C28.6496 6.27089 22.413 13.8156 22.413 21.9481C22.413 28.611 26.993 34 33.522 34C38.7842 34 42 29.5908 42 25.8674ZM19.587 25.8674C19.587 25.2795 9.84223 23.1239 9.84223 16.1672C9.84223 10.9741 13.1555 7.44669 19.4896 3.23343L16.3712 0C6.23666 6.27089 0 13.8156 0 21.9481C0 28.611 4.58005 34 11.109 34C16.3712 34 19.587 29.5908 19.587 25.8674Z" fill="#E6EFF3"/>
</svg>
